<svg width="23" height="28" viewBox="0 0 23 28" fill="none" xmlns="http://www.w3.org/2000/svg">
<path fill-rule="evenodd" clip-rule="evenodd" d="M11.4405 0.000235442C11.4619 -0.00129082 11.6084 0.00481421 11.7687 0.0124455C11.9289 0.021603 12.1655 0.0383919 12.2952 0.0521282C12.425 0.0643382 12.6524 0.0918109 12.7989 0.113178C12.9454 0.134546 13.1866 0.174229 13.3331 0.203228C13.4796 0.232227 13.6933 0.279541 13.8062 0.308539C13.9192 0.336012 14.1222 0.392484 14.2565 0.432166C14.3908 0.471849 14.6075 0.545109 14.7372 0.592423C14.867 0.639737 15.0532 0.712998 15.1493 0.754207C15.2455 0.793889 15.4592 0.894622 15.6225 0.975514C15.7858 1.05793 16.0163 1.18003 16.1338 1.25024C16.2513 1.31892 16.4467 1.4395 16.5688 1.52039C16.6909 1.59975 16.8832 1.73406 16.9961 1.81801C17.1091 1.90195 17.254 2.01337 17.3166 2.06374C17.3792 2.11563 17.4921 2.21026 17.5685 2.27741C17.6448 2.34304 17.8066 2.49261 17.9317 2.60861C18.1515 2.81618 18.1576 2.82076 18.2247 2.82076C18.2629 2.82076 18.3468 2.81008 18.4125 2.79634C18.4766 2.7826 18.588 2.75055 18.6597 2.72613C18.7315 2.70018 18.8658 2.64219 18.9573 2.59487C19.0489 2.54756 19.2015 2.45904 19.2931 2.39646C19.3847 2.33388 19.5099 2.24536 19.5679 2.19805C19.6258 2.15073 19.7327 2.05916 19.8029 1.99658C19.8746 1.934 19.9952 1.81343 20.07 1.72949C20.1463 1.64401 20.2425 1.53107 20.2837 1.47765C20.3233 1.42271 20.363 1.36776 20.3691 1.35555C20.3768 1.34334 20.3859 1.33571 20.3905 1.34029C20.3951 1.34487 20.3829 1.39676 20.363 1.45476C20.3432 1.51276 20.2943 1.64401 20.2531 1.74475C20.2135 1.84548 20.1173 2.05153 20.041 2.20262C19.9647 2.35372 19.8487 2.5674 19.7815 2.67576C19.7159 2.78413 19.5938 2.97644 19.5083 3.10312C19.4244 3.22827 19.2748 3.43889 19.1771 3.56862C19.0794 3.69836 18.9039 3.91814 18.7895 4.05703C18.6735 4.19592 18.5132 4.38059 18.4338 4.46912C18.3545 4.55764 18.182 4.74232 18.0508 4.87968C17.9195 5.01704 17.6829 5.25361 17.5227 5.40624C17.3624 5.55734 17.1365 5.76644 17.019 5.87175C16.9015 5.97553 16.6817 6.16479 16.5306 6.28994C16.3795 6.41662 16.1384 6.61046 15.9964 6.72035C15.8545 6.83176 15.6164 7.01034 15.4699 7.11717C15.3233 7.22401 15.0349 7.42395 14.8288 7.55979C14.6228 7.69715 14.3343 7.8803 14.1878 7.96882C14.0413 8.05582 13.8245 8.18097 13.707 8.24508C13.5895 8.31071 13.3972 8.41144 13.066 8.5778L12.8981 8.46791C12.8065 8.40839 12.6615 8.32444 12.5776 8.28476C12.4936 8.24355 12.3532 8.18555 12.2647 8.15655C12.1762 8.12755 12.0526 8.09245 11.99 8.08024C11.9274 8.06651 11.79 8.04819 11.6847 8.03903C11.5428 8.0253 11.4482 8.0253 11.3108 8.03751C11.2101 8.04666 11.0758 8.06498 11.0132 8.07872C10.9506 8.09093 10.8331 8.12298 10.7537 8.14892C10.6743 8.17487 10.5263 8.23439 10.4256 8.28323C10.3248 8.33207 10.1737 8.41754 9.93717 8.5778L9.7006 8.46028C9.57087 8.39465 9.36482 8.28781 9.24272 8.21913C9.12062 8.15198 8.91763 8.03445 8.79247 7.95967C8.6658 7.88335 8.42312 7.7292 8.25065 7.61626C8.07819 7.50332 7.84467 7.34459 7.73173 7.26522C7.61878 7.18433 7.40511 7.02865 7.25859 6.91876C7.11207 6.80734 6.8816 6.6303 6.74729 6.52193C6.61298 6.41357 6.38709 6.22584 6.24363 6.10374C6.10168 5.98164 5.90632 5.80917 5.80864 5.72217C5.71249 5.63365 5.47287 5.40319 5.2775 5.21088C5.08062 5.01704 4.82268 4.75147 4.70211 4.62174C4.58306 4.49201 4.41975 4.31039 4.34191 4.21728C4.26254 4.12418 4.12823 3.96393 4.04429 3.85861C3.96035 3.7533 3.81993 3.57168 3.73293 3.45416C3.64746 3.33663 3.51315 3.14433 3.43531 3.0268C3.359 2.90928 3.24911 2.73376 3.19111 2.63761C3.13464 2.54145 3.04001 2.37204 2.98354 2.26367C2.92707 2.15378 2.84312 1.97979 2.79734 1.87448C2.75155 1.76917 2.68745 1.61349 2.6554 1.52649C2.62334 1.44102 2.60045 1.36624 2.60808 1.3586C2.61419 1.3525 2.62029 1.35097 2.62334 1.35555C2.6264 1.36013 2.67218 1.42118 2.7256 1.49292C2.77902 1.56465 2.93317 1.73254 3.06748 1.86837C3.22011 2.01947 3.38647 2.16752 3.50552 2.25757C3.61236 2.33541 3.77414 2.4453 3.86419 2.50024C3.95577 2.55519 4.10687 2.6315 4.19844 2.67119C4.29002 2.71087 4.42127 2.75818 4.48843 2.77497C4.55559 2.79176 4.66242 2.8116 4.84252 2.82839L5.0852 2.59335C5.21951 2.46361 5.42403 2.27741 5.54155 2.17973C5.65907 2.08052 5.84527 1.934 5.95364 1.85159C6.062 1.76917 6.26805 1.6257 6.41151 1.53107C6.55498 1.43644 6.77782 1.29755 6.90755 1.22277C7.03728 1.14951 7.26469 1.02893 7.41121 0.955673C7.55773 0.883938 7.7882 0.778627 7.92251 0.722155C8.05682 0.665684 8.30713 0.574108 8.47959 0.51611C8.65206 0.458113 8.92679 0.375695 9.0901 0.334486C9.2534 0.291751 9.4915 0.238332 9.61665 0.212385C9.74333 0.187965 9.95854 0.149809 10.0974 0.128441C10.2363 0.107073 10.4424 0.0796008 10.5553 0.0673908C10.6682 0.0536545 10.8651 0.0368656 10.9903 0.0277081C11.117 0.0185505 11.2604 0.00939299 11.3108 0.00786673C11.3612 0.00481421 11.4192 0.0017617 11.4405 0.000235442ZM3.45973 5.03841C3.46584 5.03994 3.55131 5.15135 3.64899 5.28566C3.7482 5.41998 3.91914 5.64281 4.02903 5.7817C4.14044 5.92059 4.32359 6.14037 4.43501 6.2701C4.54795 6.39983 4.72042 6.58756 4.99209 6.86687L4.86694 7.12175C4.79826 7.26217 4.71432 7.44837 4.67921 7.53689C4.64563 7.62542 4.59679 7.76889 4.57237 7.85741C4.54795 7.94593 4.51285 8.10008 4.49453 8.20082C4.46859 8.34581 4.46096 8.44654 4.45943 8.68159C4.45943 8.86016 4.46706 9.02805 4.47775 9.10131C4.48996 9.16846 4.51438 9.28904 4.53422 9.3684C4.55406 9.44777 4.58916 9.56529 4.61206 9.62787C4.63342 9.69044 4.68837 9.81407 4.73263 9.90259C4.77689 9.99112 4.83794 10.1041 4.86999 10.1544C4.90205 10.2048 4.96767 10.2979 5.01499 10.3605C5.06383 10.423 5.1493 10.5253 5.2073 10.5879C5.26529 10.6505 5.37824 10.7558 5.4576 10.8229C5.53697 10.8886 5.66823 10.9862 5.74759 11.0381C5.82696 11.0915 5.94448 11.1618 6.00706 11.1969C6.06963 11.2304 6.18715 11.2869 6.26652 11.322C6.34589 11.3571 6.49088 11.4121 6.58703 11.4441C6.68319 11.4746 6.84192 11.5189 6.93807 11.5403C7.03423 11.5616 7.19296 11.5906 7.28911 11.6028C7.38527 11.6166 7.57147 11.6303 7.93777 11.6471L7.91946 11.7631C7.90877 11.8272 7.89046 11.9722 7.87672 12.0851C7.86451 12.1981 7.84467 12.4545 7.81567 13.0146L7.39595 13.2573C7.16549 13.3901 6.49698 13.7778 5.9109 14.1166C5.32482 14.4554 4.85168 14.7378 4.85778 14.7424C4.86389 14.7485 5.26835 14.9759 5.75522 15.2491C6.2421 15.5207 6.77782 15.8214 6.9457 15.916C7.11359 16.0107 7.2998 16.119 7.35779 16.1572C7.41732 16.1954 7.51652 16.2656 7.5791 16.3129C7.64168 16.3617 7.76683 16.4747 7.85535 16.5662C7.94388 16.6578 8.07361 16.8043 8.14229 16.8929C8.2125 16.9814 8.34681 17.1706 8.44144 17.3126C8.53606 17.4545 8.66732 17.6651 8.73295 17.7781C8.79705 17.891 8.92679 18.1383 9.02141 18.3275C9.11604 18.5168 9.2473 18.7915 9.3114 18.938C9.37703 19.0846 9.49455 19.3669 9.57392 19.5638C9.65328 19.7607 9.78912 20.1178 9.87612 20.3575C9.96159 20.5971 10.1051 21.0122 10.1936 21.2808C10.2821 21.5495 10.3996 21.9142 10.4546 22.0898C10.5095 22.2653 10.6118 22.6056 10.6835 22.8453C10.7537 23.0849 10.9186 23.6481 11.0498 24.0968C11.1795 24.5455 11.3322 25.0614 11.3871 25.2415C11.4421 25.4216 11.4894 25.5727 11.4939 25.5773C11.4985 25.5818 11.5046 25.5818 11.5062 25.5773C11.5092 25.5727 11.5809 25.3361 11.6664 25.0507C11.7519 24.7653 11.9152 24.2082 12.0281 23.8144C12.1426 23.4207 12.3105 22.8498 12.4021 22.5476C12.4936 22.2454 12.6295 21.8059 12.7058 21.5708C12.7806 21.3358 12.8981 20.9817 12.9668 20.7848C13.0355 20.5879 13.1362 20.3056 13.1911 20.159C13.2461 20.0125 13.3529 19.7378 13.4277 19.5485C13.504 19.3593 13.6231 19.0785 13.6918 18.9228C13.7604 18.7671 13.8703 18.5336 13.9329 18.4038C13.997 18.2741 14.1023 18.0711 14.1664 17.9536C14.2305 17.8361 14.3252 17.6712 14.3755 17.5873C14.4259 17.5034 14.5205 17.3553 14.5861 17.2592C14.6518 17.163 14.7647 17.0073 14.8365 16.9157C14.9082 16.8242 15.0333 16.6761 15.1158 16.5891C15.1967 16.5021 15.3188 16.3877 15.3859 16.3358C15.4531 16.2823 15.566 16.203 15.6377 16.1572C15.7095 16.1099 16.1765 15.8443 16.6756 15.5635C17.1747 15.2842 17.7073 14.9866 17.8569 14.9026C18.008 14.8171 18.1301 14.7408 18.1301 14.7332C18.1301 14.7256 17.9378 14.608 17.7043 14.4722C17.4692 14.3379 16.8282 13.967 16.2788 13.6511C15.7293 13.3336 15.2531 13.0574 15.1646 13.0009V12.8208C15.1646 12.7231 15.157 12.5461 15.1493 12.4285C15.1402 12.311 15.1203 12.108 15.1035 11.9783C15.0868 11.8486 15.07 11.7204 15.0547 11.6502L15.2974 11.6379C15.4302 11.6318 15.6316 11.6135 15.7446 11.5967C15.8575 11.5799 16.033 11.5464 16.1338 11.522C16.2345 11.4975 16.3887 11.4517 16.4772 11.4212C16.5657 11.3907 16.726 11.322 16.8358 11.2701C16.9457 11.2182 17.0923 11.1389 17.164 11.0946C17.2357 11.0488 17.3594 10.9633 17.4387 10.9023C17.5181 10.8412 17.6631 10.71 17.7592 10.6093C17.8554 10.51 17.9805 10.3635 18.037 10.2842C18.0935 10.2048 18.1881 10.0461 18.2461 9.93312C18.3026 9.82018 18.3743 9.65076 18.4048 9.55919C18.4354 9.46761 18.4735 9.32261 18.4918 9.23867C18.5163 9.1242 18.5269 9.01126 18.5331 8.78843C18.5392 8.59917 18.5346 8.44044 18.5239 8.35344C18.5132 8.27713 18.4918 8.1474 18.4735 8.06345C18.4567 7.97951 18.4186 7.83451 18.3896 7.74294C18.3591 7.65136 18.3026 7.49874 18.2629 7.40716C18.2232 7.31559 18.15 7.15686 18.0065 6.87297L18.1942 6.67456C18.2965 6.56467 18.4583 6.3861 18.5544 6.27621C18.6506 6.16784 18.8078 5.97859 18.9055 5.85648C19.0031 5.73591 19.1695 5.51918 19.2763 5.37724C19.3832 5.23377 19.4854 5.09793 19.5373 5.02925L19.693 5.32535C19.7785 5.48866 19.9006 5.74202 19.9647 5.88854C20.0303 6.03506 20.1188 6.24873 20.1631 6.36168C20.2074 6.47462 20.2882 6.70508 20.3432 6.87297C20.3981 7.04086 20.4744 7.3049 20.5126 7.46058C20.5523 7.61626 20.6042 7.84978 20.6286 7.97951C20.653 8.10924 20.6835 8.29544 20.6958 8.3916C20.7095 8.48775 20.7309 8.66327 20.7446 8.78079C20.7644 8.95937 20.7705 9.36382 20.7812 11.2533C20.7889 12.4957 20.8011 13.6831 20.8102 13.8938C20.8194 14.1029 20.8377 14.4234 20.8499 14.6035C20.8636 14.7836 20.8911 15.0964 20.911 15.2979C20.9308 15.4994 20.9659 15.7939 20.9873 15.9542C21.0086 16.1145 21.0498 16.3922 21.0804 16.5723C21.1094 16.7524 21.1613 17.0409 21.1948 17.2134C21.2284 17.3858 21.294 17.688 21.3398 17.8849C21.3841 18.0818 21.4665 18.4054 21.5199 18.6023C21.5734 18.7991 21.6619 19.1059 21.7168 19.2814C21.7718 19.457 21.8664 19.7424 21.9259 19.9148C21.987 20.0873 22.106 20.4063 22.193 20.6245C22.28 20.8428 22.4143 21.1664 22.4922 21.3419C22.5715 21.5174 22.718 21.8303 22.8203 22.0363C22.9226 22.2424 23.0035 22.4118 23.0004 22.4133C22.9974 22.4164 22.5914 22.0928 22.0984 21.696C21.6039 21.2992 20.9033 20.7344 20.5401 20.4414C20.1753 20.1468 19.8731 19.9057 19.8685 19.9026C19.8624 19.8996 19.3526 20.7161 17.6142 23.5305L17.5074 23.4283C17.4479 23.3718 16.9198 22.8743 16.3322 22.3217C15.7446 21.7692 15.2592 21.3236 15.2531 21.3297C15.2485 21.3358 15.0043 21.7311 14.7113 22.2058C14.4198 22.6804 13.5788 24.0449 12.8447 25.2384C12.1106 26.432 11.5046 27.4072 11.4985 27.4088C11.4909 27.4088 10.8102 26.3114 9.98601 24.9698C9.1603 23.6298 8.31628 22.2592 8.11176 21.9264C7.90725 21.5922 7.73478 21.3205 7.72867 21.3236C7.7241 21.3251 7.19448 21.8196 6.55346 22.4225C5.91395 23.0254 5.38282 23.5168 5.37671 23.5138C5.37061 23.5107 5.08367 23.0528 4.73874 22.4942C4.39533 21.9356 3.89624 21.1236 3.62915 20.6902C3.32695 20.1972 3.13769 19.9042 3.12701 19.9072C3.11632 19.9118 2.41119 20.475 1.56259 21.1603C0.71247 21.8456 0.0103914 22.4087 0.00123382 22.4118C-0.00792372 22.4149 0.0683891 22.2515 0.169122 22.0485C0.269855 21.844 0.422481 21.5205 0.507951 21.3266C0.593422 21.1328 0.703312 20.8794 0.750626 20.7619C0.79794 20.6444 0.889516 20.4032 0.955145 20.2277C1.02077 20.0522 1.12609 19.75 1.18866 19.5562C1.25276 19.3623 1.34281 19.0708 1.39013 18.9075C1.43744 18.7442 1.51223 18.4649 1.55802 18.2894C1.60228 18.1139 1.67096 17.8284 1.70912 17.656C1.74727 17.4835 1.80985 17.1722 1.84801 16.9615C1.88616 16.7524 1.94569 16.3907 1.97774 16.1602C2.01131 15.9298 2.05558 15.5787 2.07542 15.3819C2.09679 15.185 2.12426 14.8828 2.13799 14.7103C2.1502 14.5378 2.16852 14.2707 2.17768 14.1151C2.18836 13.9472 2.19904 12.8864 2.20668 11.4823C2.21431 9.96059 2.22499 9.06773 2.23567 8.94868C2.24483 8.84795 2.2662 8.65259 2.28451 8.5137C2.3013 8.37481 2.33335 8.16876 2.3532 8.05582C2.37456 7.94288 2.40814 7.77041 2.42951 7.67426C2.4524 7.5781 2.49666 7.39953 2.53024 7.27743C2.56382 7.15533 2.63098 6.93555 2.67982 6.78903C2.72866 6.64251 2.81107 6.41509 2.86297 6.28536C2.91486 6.15563 3.00491 5.94196 3.06443 5.81222C3.12243 5.68249 3.23385 5.45355 3.31016 5.30551C3.388 5.15593 3.45515 5.03536 3.45973 5.03841ZM6.15968 7.90777C6.16426 7.9093 6.32147 8.02682 6.51072 8.16877C6.69998 8.31071 7.02202 8.53812 7.22806 8.67396C7.43411 8.81132 7.73936 9.00515 7.90725 9.10436C8.07513 9.20509 8.30865 9.34093 8.42617 9.40656C8.5437 9.47219 8.75279 9.58513 9.14351 9.7866L8.99089 9.85986C8.90694 9.89954 8.78637 9.94991 8.72379 9.9728C8.66122 9.99569 8.53301 10.0323 8.44144 10.0552C8.34986 10.0796 8.20181 10.1071 8.11329 10.1163C8.01103 10.1285 7.86298 10.1331 7.70883 10.127C7.55468 10.1208 7.41121 10.1056 7.31964 10.0873C7.24027 10.0705 7.11664 10.0354 7.04491 10.011C6.97318 9.98654 6.88008 9.95143 6.83887 9.93312C6.79613 9.9148 6.71829 9.87359 6.66335 9.84154C6.6084 9.81102 6.50919 9.74081 6.44357 9.68739C6.37641 9.63397 6.28026 9.53782 6.22989 9.47524C6.18105 9.41266 6.10932 9.29972 6.07268 9.22341C6.03605 9.1471 5.99637 9.03873 5.98416 8.97921C5.97195 8.91968 5.96127 8.793 5.96127 8.68922C5.96127 8.56406 5.97195 8.46486 5.99179 8.37634C6.00706 8.3046 6.03453 8.20539 6.05132 8.15503C6.06963 8.10466 6.09863 8.02682 6.11847 7.98409C6.13679 7.93983 6.1551 7.90472 6.15968 7.90777ZM16.8358 7.9032L16.8847 8.00698C16.9106 8.06345 16.9503 8.16724 16.9702 8.23897C16.9915 8.31071 17.0175 8.42975 17.0266 8.50607C17.0373 8.58543 17.0419 8.70143 17.0373 8.78079C17.0312 8.85711 17.0129 8.96852 16.9961 9.02957C16.9793 9.0891 16.9442 9.1822 16.9183 9.23562C16.8923 9.28751 16.842 9.37146 16.8053 9.42182C16.7702 9.47219 16.6939 9.55766 16.6359 9.6126C16.5779 9.66755 16.4818 9.74386 16.4238 9.78202C16.3658 9.8217 16.2666 9.87817 16.2055 9.9087C16.146 9.93922 16.0361 9.98349 15.9613 10.0079C15.888 10.0339 15.7568 10.069 15.6683 10.0873C15.5309 10.1178 15.4622 10.1224 15.1875 10.1239C14.9097 10.1239 14.8426 10.1193 14.6915 10.0888C14.5953 10.069 14.4503 10.0323 14.3709 10.0064C14.2916 9.98196 14.1451 9.92243 14.0459 9.87512C13.9466 9.82628 13.8673 9.78507 13.8673 9.78049C13.8673 9.77591 13.9619 9.72555 14.0779 9.66755C14.1924 9.60955 14.4106 9.49356 14.5617 9.40961C14.7128 9.32567 14.957 9.18525 15.1035 9.09673C15.2501 9.00821 15.5004 8.851 15.6606 8.74569C15.8209 8.6419 16.0636 8.47554 16.2025 8.37634C16.3413 8.27713 16.5398 8.13061 16.6451 8.04972L16.8358 7.9032ZM11.5474 9.5134C11.6374 9.51645 11.761 9.53324 11.8297 9.55155C11.8969 9.56834 12.0205 9.61718 12.1045 9.65687C12.1884 9.69807 12.3151 9.77591 12.3868 9.82781C12.4585 9.88122 12.5837 9.99112 12.6661 10.0705C12.7501 10.1498 12.8538 10.2597 12.8981 10.3147C12.9424 10.3696 13.0172 10.4719 13.0645 10.5436C13.1133 10.6154 13.185 10.739 13.2263 10.8183C13.2675 10.8977 13.3285 11.0351 13.3621 11.1236C13.3972 11.2121 13.446 11.3556 13.4705 11.4441C13.4964 11.5326 13.5346 11.6898 13.5544 11.7952C13.5758 11.9005 13.6017 12.0653 13.6139 12.1615C13.6261 12.2576 13.6444 12.4637 13.6536 12.6193C13.6628 12.775 13.6689 13.0803 13.6612 13.6953L13.7009 13.7793C13.7223 13.8251 13.7635 13.8892 13.7925 13.9228C13.8215 13.9548 13.8719 13.9975 13.9054 14.0159C13.939 14.0342 14.226 14.199 15.1188 14.7103L14.954 14.811C14.8639 14.866 14.7159 14.9637 14.6243 15.0278C14.5327 15.0919 14.374 15.214 14.2733 15.2994C14.171 15.3849 13.9924 15.5528 13.8749 15.6734C13.7559 15.7939 13.5941 15.9756 13.5147 16.0763C13.4338 16.177 13.3194 16.3281 13.2598 16.4121C13.2003 16.496 13.0858 16.6746 13.0049 16.8089C12.9241 16.9432 12.7897 17.1874 12.7073 17.3507C12.6264 17.514 12.5028 17.7781 12.4357 17.9383C12.3685 18.0971 12.2632 18.3581 12.2037 18.5183C12.1441 18.677 12.0205 19.0311 11.9305 19.3043C11.8404 19.5775 11.7076 19.9835 11.6374 20.2079C11.5672 20.4338 11.5046 20.6169 11.497 20.6169C11.4909 20.6169 11.4451 20.4841 11.3947 20.3224C11.3429 20.1621 11.2085 19.747 11.0956 19.4035C10.9827 19.0586 10.8438 18.6542 10.7858 18.5031C10.7293 18.352 10.6423 18.1322 10.5935 18.0147C10.5461 17.8971 10.4363 17.656 10.3508 17.4805C10.2638 17.3034 10.1478 17.0775 10.0913 16.9768C10.0333 16.8761 9.9097 16.6761 9.81507 16.5342C9.72044 16.3907 9.58155 16.1984 9.50676 16.1068C9.4335 16.0153 9.30072 15.8611 9.2122 15.7649C9.12367 15.6688 8.97105 15.5162 8.87184 15.4276C8.77111 15.3391 8.62459 15.217 8.5437 15.1544C8.46128 15.0919 8.31628 14.9896 8.2186 14.9255C8.12092 14.8614 8.0034 14.7881 7.87672 14.7149L8.05987 14.608C8.1606 14.5485 8.40481 14.4081 8.60169 14.2952C8.79858 14.1822 8.99699 14.0693 9.04278 14.0449C9.08857 14.0204 9.15878 13.9624 9.19999 13.9166C9.24272 13.8693 9.28851 13.7976 9.3053 13.7518C9.33124 13.6801 9.3343 13.6282 9.3343 13.1718C9.3343 12.8971 9.34193 12.5796 9.34956 12.4667C9.35872 12.3538 9.38008 12.1676 9.39687 12.0546C9.41366 11.9417 9.44419 11.7692 9.46556 11.6731C9.48692 11.5769 9.53576 11.4044 9.57239 11.2915C9.61055 11.1785 9.68228 11 9.73265 10.8947C9.78302 10.7893 9.87459 10.6276 9.93717 10.536C9.99822 10.4429 10.1035 10.3055 10.1707 10.2307C10.2378 10.1544 10.3355 10.0552 10.3889 10.0079C10.4424 9.96212 10.5309 9.88886 10.5858 9.84612C10.6408 9.80491 10.7323 9.74081 10.7919 9.70723C10.8514 9.67213 10.9552 9.62329 11.0239 9.59734C11.0941 9.57139 11.204 9.54087 11.2681 9.52866C11.3474 9.5134 11.4421 9.50882 11.5474 9.5134Z" fill="#FF0492"/>
</svg>
