<svg width="34" height="24" viewBox="0 0 34 24" fill="none" xmlns="http://www.w3.org/2000/svg">
<path d="M15.303 20.0083C15.4338 20.0085 15.5633 20.0339 15.684 20.0831C15.8048 20.1323 15.9145 20.2043 16.0068 20.295C16.0992 20.3858 16.1724 20.4934 16.2223 20.6119C16.2721 20.7303 16.2977 20.8573 16.2975 20.9854C16.2974 21.1135 16.2714 21.2404 16.2212 21.3587C16.171 21.477 16.0974 21.5845 16.0048 21.6749C15.9122 21.7654 15.8023 21.8371 15.6814 21.886C15.5605 21.9349 15.431 21.9599 15.3002 21.9597C15.0361 21.9594 14.7829 21.8562 14.5964 21.673C14.4099 21.4897 14.3053 21.2414 14.3057 20.9826C14.306 20.7238 14.4113 20.4758 14.5984 20.2931C14.7854 20.1104 15.0389 20.0079 15.303 20.0083ZM30.9206 13.9749C30.7898 13.9748 30.6603 13.9495 30.5395 13.9004C30.4187 13.8513 30.309 13.7793 30.2166 13.6886C30.1242 13.598 30.0509 13.4904 30.0009 13.3719C29.951 13.2535 29.9253 13.1266 29.9254 12.9985C29.9255 12.8704 29.9513 12.7435 30.0015 12.6252C30.0516 12.5068 30.125 12.3993 30.2176 12.3088C30.3101 12.2182 30.42 12.1464 30.5408 12.0975C30.6617 12.0485 30.7912 12.0234 30.922 12.0235C31.1862 12.0237 31.4394 12.1266 31.626 12.3097C31.8127 12.4929 31.9174 12.7411 31.9172 12.9999C31.9171 13.2587 31.8119 13.5068 31.625 13.6896C31.4381 13.8725 31.1847 13.9751 30.9206 13.9749ZM30.9206 9.9832C30.104 9.98393 29.3211 10.3021 28.7436 10.8678C28.1662 11.4335 27.8415 12.2005 27.8407 13.0006C27.8407 13.324 27.896 13.646 28.0036 13.9596L17.8304 19.2657C17.5483 18.8645 17.1709 18.5364 16.7306 18.3098C16.2903 18.0833 15.8004 17.965 15.303 17.9652C14.1286 17.9652 13.059 18.6245 12.5405 19.653L3.40141 14.9312C2.43523 14.4343 1.71272 12.8771 1.78922 11.4586C1.82889 10.7188 2.08956 10.1442 2.48765 9.92213C2.73982 9.78333 3.04299 9.79444 3.366 9.9596L3.4255 9.99152C5.84804 11.2407 13.773 15.3309 14.1073 15.4822C14.6216 15.7168 14.9078 15.8112 15.7861 15.4031L32.1687 7.05603C32.4095 6.9672 32.6901 6.74097 32.6901 6.39815C32.6901 5.92347 32.1885 5.7361 32.1871 5.7361C31.2549 5.2989 29.8227 4.6424 28.4258 4.00118C25.4394 2.63128 22.055 1.07956 20.5689 0.316196C19.2853 -0.341688 18.2526 0.213488 18.0684 0.324523L17.7114 0.498016C11.0218 3.73886 2.06831 8.08311 1.5583 8.38707C0.647371 8.93114 0.0821114 10.0151 0.00844357 11.36C-0.104892 13.4933 1.00438 15.7182 2.59249 16.5329L12.2571 21.4157C12.3636 22.1329 12.7299 22.7887 13.2892 23.2632C13.8484 23.7377 14.5632 23.9992 15.303 24C16.111 23.9987 16.8862 23.6867 17.4619 23.1313C18.0375 22.5759 18.3678 21.8213 18.3815 21.0298L29.0265 15.3767C29.5648 15.7903 30.2349 16.0166 30.9206 16.0166C31.7372 16.0158 32.5202 15.6977 33.0976 15.132C33.675 14.5663 33.9997 13.7992 34.0005 12.9992C33.9997 12.1992 33.675 11.4321 33.0976 10.8664C32.5202 10.3007 31.7372 9.98254 30.9206 9.98181" fill="#FF0492"/>
</svg>
